<svg width="214" height="75" viewBox="0 0 214 75" fill="none" xmlns="http://www.w3.org/2000/svg">
<rect width="214" height="75" fill="white"/>
<path d="M20.9922 31.0156C23.1953 31.0156 25.125 31.7812 26.7812 33.3125C28.4375 34.8281 29.2656 36.9844 29.2656 39.7812H14.3828C14.5391 43.4062 15.3594 46.0469 16.8438 47.7031C18.3281 49.3594 20.0859 50.1875 22.1172 50.1875C23.7578 50.1875 25.1406 49.7578 26.2656 48.8984C27.3906 48.0391 28.4297 46.8203 29.3828 45.2422L30.2031 45.5234C29.5625 47.5078 28.3594 49.3438 26.5938 51.0312C24.8438 52.7188 22.6953 53.5625 20.1484 53.5625C17.2109 53.5625 14.9375 52.4531 13.3281 50.2344C11.7344 48.0156 10.9375 45.4609 10.9375 42.5703C10.9375 39.4297 11.8672 36.7188 13.7266 34.4375C15.5859 32.1562 18.0078 31.0156 20.9922 31.0156ZM19.6328 32.7266C17.8516 32.7266 16.4922 33.5156 15.5547 35.0938C15.0547 35.9375 14.6953 37 14.4766 38.2812H24.3672C24.1953 36.7188 23.8984 35.5547 23.4766 34.7891C22.7109 33.4141 21.4297 32.7266 19.6328 32.7266ZM42.6953 30.8516C43.8359 30.8516 44.8828 31.1016 45.8359 31.6016C46.4609 31.9297 47.0625 32.3828 47.6406 32.9609V25.5078C47.6406 24.5547 47.5312 23.8984 47.3125 23.5391C47.1094 23.1797 46.6094 23 45.8125 23C45.625 23 45.4609 23.0078 45.3203 23.0234C45.1797 23.0391 44.8672 23.0703 44.3828 23.1172V22.3438L46.3047 21.8516C47.0078 21.6641 47.7109 21.4688 48.4141 21.2656C49.1172 21.0625 49.7344 20.8672 50.2656 20.6797C50.5156 20.6016 50.9297 20.4531 51.5078 20.2344L51.6484 20.2812L51.6016 22.7422C51.5859 23.6328 51.5703 24.5547 51.5547 25.5078C51.5391 26.4453 51.5312 27.375 51.5312 28.2969L51.4844 47.4453C51.4844 48.4609 51.6094 49.1719 51.8594 49.5781C52.1094 49.9844 52.7734 50.1875 53.8516 50.1875C54.0234 50.1875 54.1953 50.1875 54.3672 50.1875C54.5391 50.1719 54.7109 50.1484 54.8828 50.1172V50.8906C54.7891 50.9219 53.6562 51.3125 51.4844 52.0625L47.8047 53.4453L47.6406 53.2344V50.3516C46.7656 51.3047 46.0078 51.9844 45.3672 52.3906C44.2266 53.0938 42.9062 53.4453 41.4062 53.4453C38.75 53.4453 36.5938 52.4219 34.9375 50.375C33.2969 48.3125 32.4766 45.9297 32.4766 43.2266C32.4766 39.8359 33.4609 36.9297 35.4297 34.5078C37.4141 32.0703 39.8359 30.8516 42.6953 30.8516ZM43.5625 50.9141C44.7812 50.9141 45.7656 50.5547 46.5156 49.8359C47.2656 49.1172 47.6406 48.4375 47.6406 47.7969V37.7422C47.6406 35.7109 47.0938 34.2812 46 33.4531C44.9219 32.6094 43.8672 32.1875 42.8359 32.1875C40.8672 32.1875 39.3359 33.0625 38.2422 34.8125C37.1484 36.5469 36.6016 38.6875 36.6016 41.2344C36.6016 43.75 37.1797 45.9922 38.3359 47.9609C39.5078 49.9297 41.25 50.9141 43.5625 50.9141ZM69.0859 40.0156C67.2891 40.6094 65.8047 41.2656 64.6328 41.9844C62.3828 43.375 61.2578 44.9531 61.2578 46.7188C61.2578 48.1406 61.7266 49.1875 62.6641 49.8594C63.2734 50.2969 63.9531 50.5156 64.7031 50.5156C65.7344 50.5156 66.7188 50.2266 67.6562 49.6484C68.6094 49.0703 69.0859 48.3359 69.0859 47.4453V40.0156ZM57.0859 48.3359C57.0859 46.0703 58.2188 44.1797 60.4844 42.6641C61.9219 41.7266 64.7891 40.4531 69.0859 38.8438V36.8516C69.0859 35.2578 68.9297 34.1484 68.6172 33.5234C68.0859 32.4766 66.9844 31.9531 65.3125 31.9531C64.5156 31.9531 63.7578 32.1562 63.0391 32.5625C62.3203 32.9844 61.9609 33.5625 61.9609 34.2969C61.9609 34.4844 62 34.8047 62.0781 35.2578C62.1562 35.6953 62.1953 35.9766 62.1953 36.1016C62.1953 36.9766 61.9062 37.5859 61.3281 37.9297C61 38.1328 60.6094 38.2344 60.1562 38.2344C59.4531 38.2344 58.9141 38.0078 58.5391 37.5547C58.1641 37.0859 57.9766 36.5703 57.9766 36.0078C57.9766 34.9141 58.6484 33.7734 59.9922 32.5859C61.3516 31.3828 63.3359 30.7812 65.9453 30.7812C68.9766 30.7812 71.0312 31.7656 72.1094 33.7344C72.6875 34.8125 72.9766 36.3828 72.9766 38.4453V47.8438C72.9766 48.75 73.0391 49.375 73.1641 49.7188C73.3672 50.3281 73.7891 50.6328 74.4297 50.6328C74.7891 50.6328 75.0859 50.5781 75.3203 50.4688C75.5547 50.3594 75.9609 50.0938 76.5391 49.6719V50.8906C76.0391 51.5 75.5 52 74.9219 52.3906C74.0469 52.9844 73.1562 53.2812 72.25 53.2812C71.1875 53.2812 70.4141 52.9375 69.9297 52.25C69.4609 51.5625 69.2031 50.7422 69.1562 49.7891C67.9688 50.8203 66.9531 51.5859 66.1094 52.0859C64.6875 52.9297 63.3359 53.3516 62.0547 53.3516C60.7109 53.3516 59.5469 52.8828 58.5625 51.9453C57.5781 50.9922 57.0859 49.7891 57.0859 48.3359ZM76.8203 23.1875V22.3906C78.6016 21.9844 80.2031 21.5312 81.625 21.0312C83.0469 20.5312 83.8125 20.2812 83.9219 20.2812C83.9531 20.375 83.9688 20.4688 83.9688 20.5625V34.8359C84.375 34.0859 84.9844 33.375 85.7969 32.7031C87.2344 31.5312 88.8906 30.9453 90.7656 30.9453C93.0625 30.9453 95.0234 31.9141 96.6484 33.8516C98.2734 35.7891 99.0859 38.3047 99.0859 41.3984C99.0859 44.7109 98.0312 47.5469 95.9219 49.9062C93.8125 52.2656 91.0391 53.4453 87.6016 53.4453C85.8672 53.4453 84.1641 53.1016 82.4922 52.4141C80.8203 51.7266 79.9844 51.0391 79.9844 50.3516V25.5781C79.9844 24.6719 79.8594 24.0312 79.6094 23.6562C79.3594 23.2656 78.7812 23.0703 77.875 23.0703L76.8203 23.1875ZM83.875 49.5781C84.0156 50.3906 84.625 50.9766 85.7031 51.3359C86.7812 51.6797 87.7266 51.8516 88.5391 51.8516C90.7266 51.8516 92.3438 51.0312 93.3906 49.3906C94.4531 47.75 94.9844 45.7656 94.9844 43.4375C94.9844 41.1094 94.4922 38.9609 93.5078 36.9922C92.5234 35.0078 90.9297 34.0156 88.7266 34.0156C87.6172 34.0156 86.5312 34.3594 85.4688 35.0469C84.4062 35.7188 83.875 36.5781 83.875 37.625V49.5781ZM101.875 42.125C101.875 39.0156 102.859 36.3906 104.828 34.25C106.812 32.0938 109.359 31.0156 112.469 31.0156C115.562 31.0156 118.125 32.0312 120.156 34.0625C122.188 36.0938 123.203 38.7969 123.203 42.1719C123.203 45.2812 122.219 47.9844 120.25 50.2812C118.281 52.5781 115.734 53.7266 112.609 53.7266C109.609 53.7266 107.07 52.625 104.992 50.4219C102.914 48.2188 101.875 45.4531 101.875 42.125ZM111.812 32.4219C110.578 32.4219 109.508 32.8281 108.602 33.6406C107.039 35.0625 106.258 37.5156 106.258 41C106.258 43.7812 106.883 46.375 108.133 48.7812C109.398 51.1875 111.148 52.3906 113.383 52.3906C115.133 52.3906 116.477 51.5859 117.414 49.9766C118.367 48.3672 118.844 46.2578 118.844 43.6484C118.844 40.9453 118.242 38.3984 117.039 36.0078C115.836 33.6172 114.094 32.4219 111.812 32.4219ZM125.875 42.125C125.875 39.0156 126.859 36.3906 128.828 34.25C130.812 32.0938 133.359 31.0156 136.469 31.0156C139.562 31.0156 142.125 32.0312 144.156 34.0625C146.188 36.0938 147.203 38.7969 147.203 42.1719C147.203 45.2812 146.219 47.9844 144.25 50.2812C142.281 52.5781 139.734 53.7266 136.609 53.7266C133.609 53.7266 131.07 52.625 128.992 50.4219C126.914 48.2188 125.875 45.4531 125.875 42.125ZM135.812 32.4219C134.578 32.4219 133.508 32.8281 132.602 33.6406C131.039 35.0625 130.258 37.5156 130.258 41C130.258 43.7812 130.883 46.375 132.133 48.7812C133.398 51.1875 135.148 52.3906 137.383 52.3906C139.133 52.3906 140.477 51.5859 141.414 49.9766C142.367 48.3672 142.844 46.2578 142.844 43.6484C142.844 40.9453 142.242 38.3984 141.039 36.0078C139.836 33.6172 138.094 32.4219 135.812 32.4219ZM148.75 52.3438C150.25 52.2344 151.234 51.9844 151.703 51.5938C152.188 51.2031 152.43 50.3594 152.43 49.0625V25.5781C152.43 24.4688 152.242 23.7656 151.867 23.4688C151.492 23.1719 150.953 23.0234 150.25 23.0234C149.953 23.0234 149.695 23.0312 149.477 23.0469C149.258 23.0625 149.016 23.0859 148.75 23.1172V22.4609L150.859 21.8984C152.469 21.4766 153.836 21.0781 154.961 20.7031C155.648 20.4688 156.047 20.3516 156.156 20.3516C156.25 20.3516 156.305 20.375 156.32 20.4219C156.352 20.4531 156.367 20.5391 156.367 20.6797V40.3906L162.859 34.6719C163.328 34.25 163.641 33.9141 163.797 33.6641C163.969 33.4141 164.055 33.1953 164.055 33.0078C164.055 32.6484 163.875 32.4219 163.516 32.3281C163.172 32.2344 162.547 32.1641 161.641 32.1172V31.4609H171.414V32.1172C169.664 32.2266 168.258 32.5781 167.195 33.1719C166.133 33.75 164.094 35.4219 161.078 38.1875L159.695 39.4531L164.031 45.0781C166.25 47.9531 167.922 49.8672 169.047 50.8203C170.172 51.7578 171.367 52.2812 172.633 52.3906V53H162.203V52.3438L163.023 52.2969C163.289 52.2812 163.531 52.2266 163.75 52.1328C163.969 52.0391 164.078 51.8828 164.078 51.6641C164.078 51.4922 164.039 51.3359 163.961 51.1953C163.883 51.0391 163.773 50.8672 163.633 50.6797L156.367 41.1172V49.7891C156.367 50.8672 156.766 51.5859 157.562 51.9453C158.031 52.1641 158.836 52.2812 159.977 52.2969V53H148.75V52.3438ZM175.141 45.6172H175.914C176.273 47.3984 176.758 48.7656 177.367 49.7188C178.461 51.4688 180.062 52.3438 182.172 52.3438C183.344 52.3438 184.266 52.0234 184.938 51.3828C185.625 50.7266 185.969 49.8828 185.969 48.8516C185.969 48.1953 185.773 47.5625 185.383 46.9531C184.992 46.3438 184.305 45.75 183.32 45.1719L180.695 43.6719C178.773 42.6406 177.359 41.6016 176.453 40.5547C175.547 39.5078 175.094 38.2734 175.094 36.8516C175.094 35.1016 175.719 33.6641 176.969 32.5391C178.219 31.4141 179.789 30.8516 181.68 30.8516C182.508 30.8516 183.414 31.0078 184.398 31.3203C185.398 31.6328 185.961 31.7891 186.086 31.7891C186.367 31.7891 186.57 31.75 186.695 31.6719C186.82 31.5938 186.93 31.4688 187.023 31.2969H187.586L187.75 37.8359H187.023C186.711 36.3203 186.289 35.1406 185.758 34.2969C184.789 32.7344 183.391 31.9531 181.562 31.9531C180.469 31.9531 179.609 32.2891 178.984 32.9609C178.359 33.6328 178.047 34.4219 178.047 35.3281C178.047 36.7656 179.125 38.0469 181.281 39.1719L184.375 40.8359C187.703 42.6484 189.367 44.7578 189.367 47.1641C189.367 49.0078 188.672 50.5156 187.281 51.6875C185.906 52.8594 184.102 53.4453 181.867 53.4453C180.93 53.4453 179.867 53.2891 178.68 52.9766C177.492 52.6641 176.789 52.5078 176.57 52.5078C176.383 52.5078 176.219 52.5781 176.078 52.7188C175.938 52.8438 175.828 53 175.75 53.1875H175.141V45.6172ZM199.188 53.5625C198.438 53.5625 197.805 53.3047 197.289 52.7891C196.773 52.2578 196.516 51.625 196.516 50.8906C196.516 50.1562 196.773 49.5312 197.289 49.0156C197.82 48.5 198.453 48.2422 199.188 48.2422C199.922 48.2422 200.547 48.5 201.062 49.0156C201.578 49.5312 201.836 50.1562 201.836 50.8906C201.836 51.625 201.578 52.2578 201.062 52.7891C200.562 53.3047 199.938 53.5625 199.188 53.5625Z" fill="black"/>
</svg>
